# Blender v2.70 (sub 0) OBJ File: 'Grass.blend'
# www.blender.org
o Grass_Square_Plane.023
v -0.250000 0.000000 -0.433013
v 0.250000 -0.000000 0.433013
v -0.025856 0.965926 -0.562422
v 0.474144 0.965926 0.303603
v -0.250000 0.000000 0.433012
v 0.250000 0.000000 -0.433013
v -0.474144 0.965926 0.303603
v 0.025856 0.965926 -0.562423
v 0.500000 0.000000 -0.000001
v -0.500000 0.000000 -0.000000
v 0.500000 0.965926 0.258819
v -0.500000 0.965926 0.258819
v -0.500000 0.000000 -0.000000
v 0.500000 0.000000 -0.000000
v -0.500000 0.766045 -0.642788
v 0.500000 0.766045 -0.642788
v 0.250000 0.000000 -0.433013
v -0.250000 0.000000 0.433012
v 0.806670 0.766045 -0.111619
v 0.306670 0.766045 0.754406
v 0.250000 0.000000 0.433012
v -0.250000 0.000000 -0.433013
v -0.306671 0.766045 0.754406
v -0.806670 0.766045 -0.111619
vt 0.000000 0.000000
vt 1.000000 0.000000
vt 1.000000 1.000000
vt 0.000000 1.000000
vn -0.836516 0.258819 0.482963
vn 0.836516 0.258819 0.482963
vn -0.000000 0.258819 -0.965926
vn 0.000000 0.642788 0.766045
vn -0.663414 0.642788 -0.383022
vn 0.663414 0.642788 -0.383022
s off
f 1/1/1 2/2/1 4/3/1 3/4/1
f 5/1/2 6/2/2 8/3/2 7/4/2
f 9/1/3 10/2/3 12/3/3 11/4/3
f 13/1/4 14/2/4 16/3/4 15/4/4
f 17/1/5 18/2/5 20/3/5 19/4/5
f 21/1/6 22/2/6 24/3/6 23/4/6
